<svg id="Layer_1" data-name="Layer 1" xmlns="http://www.w3.org/2000/svg" xmlns:xlink="http://www.w3.org/1999/xlink" viewBox="0 0 538 130"><defs><style>.cls-1,.cls-6{fill:none;}.cls-2{clip-path:url(#clip-path);}.cls-3{fill:#00bce7;}.cls-4{fill:#1e1965;}.cls-5{fill:#231f20;}.cls-6{stroke:#231f20;stroke-width:0.25px;}</style><clipPath id="clip-path"><rect class="cls-1" x="16" y="19.57" width="249.84" height="88.52"/></clipPath></defs><g class="cls-2"><path class="cls-3" d="M147.15,103.66V85.54h3V93h8.35V85.54h2.95v18.12h-2.95v-7.9h-8.35v7.9Zm21.07-2.78V95.74h6.5V93h-6.5V88.32h7.58V85.54H165.27v18.12h10.81v-2.78Zm33.14,0V85.54h-3v18.12h10.5v-2.78Zm26.18,2.78v-7.9h8.35v7.9h3V85.54h-3V93h-8.35V85.54h-3v18.12Zm-14.15,0h3V88.32h5.31V85.54h-13.6v2.78h5.31Zm-30.5-4-1.56,4h-3.2l7.29-18.12h2.78l7.29,18.12H192.3l-1.56-4Zm6.78-2.74-2.86-7.34L184,96.94ZM193,40.37a4.46,4.46,0,0,1,0,7.73A8.45,8.45,0,0,1,193,65a4.46,4.46,0,0,0,0,7.72,16.18,16.18,0,1,0,0-32.35"/><path class="cls-4" d="M45.81,71.94h-8.5V36.81H24.67V29.16H58.33v7.65H45.81Zm52.9-42.78H90.6V71.94h8.11ZM229.71,65a8.45,8.45,0,1,1,6.7-13.59l6.13-4.71a16.18,16.18,0,1,0,0,19.69l-6.13-4.7a8.43,8.43,0,0,1-6.7,3.31M172.46,29.16V56.55a16.2,16.2,0,1,1-7.73-13.79V29.16Zm-7.73,27.39A8.45,8.45,0,1,0,156.29,65a8.44,8.44,0,0,0,8.44-8.45M193,72.72A4.45,4.45,0,0,1,193,65a8.45,8.45,0,1,1,0-16.9,4.46,4.46,0,0,0,0-7.73,16.18,16.18,0,1,0,0,32.35M119.57,40.37a16.18,16.18,0,0,0,0,32.35A14.11,14.11,0,0,0,128,69.86v2.47h7.73V56.55a16.17,16.17,0,0,0-16.18-16.18m0,24.63A8.45,8.45,0,1,1,128,56.55,8.45,8.45,0,0,1,119.57,65m127.16,6.94h.65V67.81h1.54v-.58H245.2v.58h1.53Zm5.41-.57,1.63-2.84v3.41h.61V67.23h-.52L252,70.54l-1.88-3.31h-.53v4.71h.62V68.53l1.63,2.84ZM61.43,59.64a8.85,8.85,0,0,0,15.34,2.3l5.8,4.45a16.17,16.17,0,1,1,3.35-9.84,16.52,16.52,0,0,1-.3,3.09Zm0-6.18H78a8.86,8.86,0,0,0-16.61,0"/></g><path class="cls-5" d="M327.94,57c0,3.43-2.54,5.4-7.58,5.4h-9.29V42.16h8.71c4.5,0,7.09,1.9,7.09,5.19a4.68,4.68,0,0,1-3.08,4.58A4.83,4.83,0,0,1,327.94,57Zm-14.73-13v7.32h6.43c3.23,0,5.1-1.24,5.1-3.66s-1.87-3.66-5.1-3.66Zm12.6,12.86c0-2.63-1.93-3.78-5.48-3.78h-7.12v7.59h7.12C323.88,60.59,325.81,59.43,325.81,56.78Z"/><path class="cls-5" d="M345.59,55.4H332.91a5.61,5.61,0,0,0,6,5.27,6,6,0,0,0,4.64-2L344.67,60a7.47,7.47,0,0,1-5.85,2.48c-4.73,0-8-3.23-8-7.73s3.14-7.7,7.41-7.7,7.35,3.14,7.35,7.7C345.62,54.93,345.59,55.16,345.59,55.4Zm-12.68-1.53h10.75a5.39,5.39,0,0,0-10.75,0Z"/><path class="cls-5" d="M357.22,61.42a4.89,4.89,0,0,1-3.2,1.07c-2.86,0-4.44-1.62-4.44-4.41V48.91h-2.71V47.18h2.71V43.86h2v3.32h4.62v1.73h-4.62V58c0,1.79.93,2.77,2.63,2.77A3.4,3.4,0,0,0,356.5,60Z"/><path class="cls-5" d="M369,61.42a4.89,4.89,0,0,1-3.2,1.07c-2.86,0-4.45-1.62-4.45-4.41V48.91h-2.71V47.18h2.71V43.86h2.05v3.32H368v1.73h-4.62V58c0,1.79.92,2.77,2.63,2.77a3.4,3.4,0,0,0,2.25-.78Z"/><path class="cls-5" d="M385,55.4H372.3a5.62,5.62,0,0,0,6,5.27,6,6,0,0,0,4.65-2L384.07,60a7.47,7.47,0,0,1-5.85,2.48c-4.73,0-8-3.23-8-7.73s3.14-7.7,7.41-7.7S385,50.2,385,54.76C385,54.93,385,55.16,385,55.4ZM372.3,53.87h10.76a5.39,5.39,0,0,0-10.76,0Z"/><path class="cls-5" d="M396.42,47.06v2c-.18,0-.35,0-.49,0-3.18,0-5.11,2-5.11,5.6v7.73h-2.05V47.18h2v3C391.69,48.13,393.62,47.06,396.42,47.06Z"/><path class="cls-5" d="M421.85,53.55v8.8h-2v-8.6c0-3.2-1.68-4.84-4.56-4.84-3.26,0-5.31,2-5.31,5.48v8h-2V41h2v8.88a6.43,6.43,0,0,1,5.69-2.77C419.32,47.06,421.85,49.19,421.85,53.55Z"/><path class="cls-5" d="M440.26,55.4H427.57a5.61,5.61,0,0,0,6,5.27,6,6,0,0,0,4.64-2L439.33,60a7.47,7.47,0,0,1-5.85,2.48c-4.73,0-8-3.23-8-7.73s3.14-7.7,7.41-7.7,7.36,3.14,7.36,7.7C440.29,54.93,440.26,55.16,440.26,55.4Zm-12.69-1.53h10.76a5.39,5.39,0,0,0-10.76,0Z"/><path class="cls-5" d="M455.49,52.94v9.41h-2V60c-.93,1.56-2.72,2.51-5.22,2.51-3.44,0-5.54-1.79-5.54-4.41,0-2.34,1.5-4.3,5.85-4.3h4.82v-.92c0-2.6-1.47-4-4.3-4a7.69,7.69,0,0,0-5,1.79l-.93-1.53a9.63,9.63,0,0,1,6.17-2C453.27,47.06,455.49,49,455.49,52.94Zm-2.05,4.85V55.31h-4.76c-2.94,0-3.89,1.15-3.89,2.71,0,1.76,1.41,2.85,3.83,2.85A4.85,4.85,0,0,0,453.44,57.79Z"/><path class="cls-5" d="M460.39,41h2.05v21.4h-2.05Z"/><path class="cls-5" d="M475.68,61.42a4.89,4.89,0,0,1-3.2,1.07c-2.86,0-4.44-1.62-4.44-4.41V48.91h-2.72V47.18H468V43.86h2v3.32h4.62v1.73h-4.62V58c0,1.79.93,2.77,2.63,2.77A3.4,3.4,0,0,0,475,60Z"/><path class="cls-5" d="M492.75,53.55v8.8H490.7v-8.6c0-3.2-1.67-4.84-4.55-4.84-3.26,0-5.31,2-5.31,5.48v8h-2V41h2v8.88a6.42,6.42,0,0,1,5.68-2.77C490.21,47.06,492.75,49.19,492.75,53.55Z"/><path class="cls-5" d="M335.67,88.25v8.8h-2.05v-8.6c0-3.2-1.61-4.84-4.35-4.84-3.12,0-5.08,2-5.08,5.48v8h-2v-8.6c0-3.2-1.62-4.84-4.39-4.84-3.08,0-5.07,2-5.07,5.48v8h-2.05V81.88h2v2.76a6.15,6.15,0,0,1,5.57-2.88,5.46,5.46,0,0,1,5.39,3.2,6.6,6.6,0,0,1,6-3.2C333.25,81.76,335.67,83.89,335.67,88.25Z"/><path class="cls-5" d="M352.17,87.64v9.41h-2V94.68c-.92,1.56-2.71,2.51-5.22,2.51-3.43,0-5.54-1.79-5.54-4.41,0-2.34,1.5-4.3,5.86-4.3h4.81v-.92c0-2.6-1.47-4-4.29-4a7.72,7.72,0,0,0-5.05,1.79l-.92-1.53a9.61,9.61,0,0,1,6.17-2C350,81.76,352.17,83.72,352.17,87.64Zm-2.05,4.85V90h-4.76c-2.94,0-3.89,1.15-3.89,2.71,0,1.76,1.41,2.85,3.84,2.85A4.84,4.84,0,0,0,350.12,92.49Z"/><path class="cls-5" d="M371.18,75.65v21.4h-2v-3a6.59,6.59,0,0,1-5.86,3.14,7.72,7.72,0,0,1,0-15.43,6.62,6.62,0,0,1,5.77,3V75.65Zm-2,13.81a5.65,5.65,0,1,0-5.62,5.91A5.54,5.54,0,0,0,369.16,89.46Z"/><path class="cls-5" d="M389.75,90.1H377.06a5.62,5.62,0,0,0,6,5.27,6,6,0,0,0,4.65-2l1.15,1.33A7.47,7.47,0,0,1,383,97.19c-4.73,0-8-3.23-8-7.73s3.14-7.7,7.41-7.7,7.35,3.14,7.35,7.7C389.78,89.63,389.75,89.86,389.75,90.1Zm-12.69-1.53h10.76a5.39,5.39,0,0,0-10.76,0Z"/><path class="cls-5" d="M416.89,89.46a7.34,7.34,0,0,1-7.55,7.73,6.64,6.64,0,0,1-5.77-3v8.45h-2.05V81.88h2v3a6.62,6.62,0,0,1,5.86-3.12A7.33,7.33,0,0,1,416.89,89.46Zm-2,0a5.66,5.66,0,1,0-5.66,5.91A5.58,5.58,0,0,0,414.85,89.46Z"/><path class="cls-5" d="M419.49,89.46a7.72,7.72,0,1,1,7.73,7.73A7.46,7.46,0,0,1,419.49,89.46Zm13.36,0a5.65,5.65,0,1,0-5.63,5.91A5.53,5.53,0,0,0,432.85,89.46Z"/><path class="cls-5" d="M436.92,95.31l.92-1.61a9.17,9.17,0,0,0,5.39,1.7c2.88,0,4.07-1,4.07-2.48,0-4-9.84-.84-9.84-6.83,0-2.48,2.14-4.33,6-4.33a10.36,10.36,0,0,1,5.37,1.41l-.9,1.65a7.73,7.73,0,0,0-4.47-1.3c-2.74,0-3.95,1.07-3.95,2.51,0,4.09,9.83,1,9.83,6.83,0,2.63-2.3,4.33-6.25,4.33A10.09,10.09,0,0,1,436.92,95.31Z"/><path class="cls-5" d="M451.16,95.31l.93-1.61a9.17,9.17,0,0,0,5.39,1.7c2.88,0,4.07-1,4.07-2.48,0-4-9.84-.84-9.84-6.83,0-2.48,2.14-4.33,6-4.33a10.29,10.29,0,0,1,5.36,1.41l-.89,1.65a7.73,7.73,0,0,0-4.47-1.3c-2.74,0-3.95,1.07-3.95,2.51,0,4.09,9.83,1,9.83,6.83,0,2.63-2.3,4.33-6.26,4.33A10.13,10.13,0,0,1,451.16,95.31Z"/><path class="cls-5" d="M466.59,77.09a1.48,1.48,0,0,1,1.5-1.44,1.45,1.45,0,0,1,1.5,1.41,1.47,1.47,0,0,1-1.5,1.5A1.49,1.49,0,0,1,466.59,77.09Zm.47,4.79h2V97.05h-2Z"/><path class="cls-5" d="M489.46,89.46a7.35,7.35,0,0,1-7.55,7.73,6.59,6.59,0,0,1-5.86-3.14v3h-2V75.65h2.05v9.11a6.64,6.64,0,0,1,5.77-3A7.33,7.33,0,0,1,489.46,89.46Zm-2,0a5.66,5.66,0,1,0-5.65,5.91A5.57,5.57,0,0,0,487.42,89.46Z"/><path class="cls-5" d="M493.36,75.65h2.05v21.4h-2.05Z"/><path class="cls-5" d="M514,90.1H501.26a5.62,5.62,0,0,0,6,5.27,6,6,0,0,0,4.65-2L513,94.71a7.47,7.47,0,0,1-5.85,2.48c-4.73,0-8-3.23-8-7.73s3.14-7.7,7.41-7.7S514,84.9,514,89.46C514,89.63,514,89.86,514,90.1Zm-12.69-1.53H512a5.39,5.39,0,0,0-10.76,0Z"/><line class="cls-6" x1="276.92" y1="29.18" x2="276.92" y2="104.2"/></svg>